<svg width="142" height="142" viewBox="0 0 142 142" fill="none" xmlns="http://www.w3.org/2000/svg">
<g filter="url(#filter0_d_198_4)">
<circle cx="71" cy="67" r="67" transform="rotate(180 71 67)" fill="url(#paint0_linear_198_4)"/>
</g>
<path d="M65.796 58.6606C66.6385 56.6614 67.0474 54.5062 66.9956 52.3373C66.9635 49.2733 66.024 46.2876 64.2959 43.7574C62.5678 41.2271 60.1285 39.2659 57.2864 38.1216C54.4443 36.9772 51.3268 36.701 48.3277 37.3278C45.3287 37.9547 42.5827 39.4564 40.4368 41.6434C38.2908 43.8304 36.8411 46.6044 36.2708 49.615C35.7006 52.6257 36.0353 55.7378 37.2328 58.5582C38.4303 61.3786 40.4368 63.7808 42.9988 65.4612C45.5608 67.1417 48.5634 68.0249 51.6271 67.9995C53.3379 68.0044 55.0371 67.7193 56.6527 67.1564" stroke="#337FFF" stroke-width="6" stroke-miterlimit="10"/>
<path d="M87.3493 93H63.5976C61.867 93 60.2073 92.3116 58.9836 91.0863C57.7598 89.8609 57.0724 88.199 57.0724 86.4661C57.0724 84.7332 57.7598 83.0713 58.9836 81.8459C60.2073 80.6206 61.867 79.9322 63.5976 79.9322H69.6986L47.9697 57.8802C46.8259 56.7634 46.131 55.2651 46.0167 53.6695C45.9025 52.0738 46.3768 50.4916 47.3498 49.2228C47.9333 48.518 48.6668 47.9527 49.4967 47.5683C50.3265 47.184 51.2316 46.9902 52.1458 47.0013C52.9635 46.9845 53.776 47.1353 54.5334 47.4443C55.2908 47.7533 55.9771 48.2139 56.5504 48.7981L69.7965 62.0619L83.1079 52.065C84.3098 51.1618 85.7972 50.7239 87.296 50.832C88.7948 50.94 90.2042 51.5868 91.2644 52.6531C97.4277 58.8375 102.064 66.3774 104.804 74.6724L105 75.2931" stroke="url(#paint1_linear_198_4)" stroke-width="6" stroke-miterlimit="10"/>
<defs>
<filter id="filter0_d_198_4" x="0" y="0" width="142" height="142" filterUnits="userSpaceOnUse" color-interpolation-filters="sRGB">
<feFlood flood-opacity="0" result="BackgroundImageFix"/>
<feColorMatrix in="SourceAlpha" type="matrix" values="0 0 0 0 0 0 0 0 0 0 0 0 0 0 0 0 0 0 127 0" result="hardAlpha"/>
<feOffset dy="4"/>
<feGaussianBlur stdDeviation="2"/>
<feComposite in2="hardAlpha" operator="out"/>
<feColorMatrix type="matrix" values="0 0 0 0 0 0 0 0 0 0 0 0 0 0 0 0 0 0 0.25 0"/>
<feBlend mode="normal" in2="BackgroundImageFix" result="effect1_dropShadow_198_4"/>
<feBlend mode="normal" in="SourceGraphic" in2="effect1_dropShadow_198_4" result="shape"/>
</filter>
<linearGradient id="paint0_linear_198_4" x1="71" y1="7.62939e-06" x2="71" y2="134" gradientUnits="userSpaceOnUse">
<stop stop-color="#A5E1FF"/>
<stop offset="1" stop-color="white"/>
</linearGradient>
<linearGradient id="paint1_linear_198_4" x1="75.5" y1="47" x2="75.5" y2="93" gradientUnits="userSpaceOnUse">
<stop stop-color="#337FFF"/>
<stop offset="1" stop-color="#1F4C99"/>
</linearGradient>
</defs>
</svg>
