<svg width="142" height="142" viewBox="0 0 142 142" fill="none" xmlns="http://www.w3.org/2000/svg">
<g filter="url(#filter0_d_198_3)">
<circle cx="71" cy="67" r="67" transform="rotate(180 71 67)" fill="url(#paint0_linear_198_3)"/>
</g>
<circle cx="71" cy="67" r="42" stroke="#2355AB" stroke-width="6"/>
<path d="M61.8397 61.0976V61.8293H61.108V61.0976H61.8397ZM61.108 61.0976V61.8293H60.3763V61.0976H61.108ZM60.3763 61.0976V61.8293H59.6446V61.0976H60.3763ZM59.6446 61.0976V61.8293H58.9129V61.0976H59.6446ZM58.9129 61.0976V61.8293H58.1812V61.0976H58.9129ZM58.9129 60.3659V61.0976H58.1812V60.3659H58.9129ZM58.9129 59.6341V60.3659H58.1812V59.6341H58.9129ZM59.6446 59.6341V60.3659H58.9129V59.6341H59.6446ZM59.6446 58.9024V59.6341H58.9129V58.9024H59.6446ZM59.6446 58.1707V58.9024H58.9129V58.1707H59.6446ZM60.3763 58.1707V58.9024H59.6446V58.1707H60.3763ZM60.3763 57.439V58.1707H59.6446V57.439H60.3763ZM61.108 57.439V58.1707H60.3763V57.439H61.108ZM61.8397 57.439V58.1707H61.108V57.439H61.8397ZM61.8397 56.7073V57.439H61.108V56.7073H61.8397ZM62.5714 56.7073V57.439H61.8397V56.7073H62.5714ZM63.3031 56.7073V57.439H62.5714V56.7073H63.3031ZM64.0348 56.7073V57.439H63.3031V56.7073H64.0348ZM64.7666 56.7073V57.439H64.0348V56.7073H64.7666ZM64.7666 57.439V58.1707H64.0348V57.439H64.7666ZM65.4983 57.439V58.1707H64.7666V57.439H65.4983ZM66.23 57.439V58.1707H65.4983V57.439H66.23ZM66.23 56.7073V57.439H65.4983V56.7073H66.23ZM66.9617 56.7073V57.439H66.23V56.7073H66.9617ZM65.4983 56.7073V57.439H64.7666V56.7073H65.4983ZM66.9617 57.439V58.1707H66.23V57.439H66.9617ZM67.6934 57.439V58.1707H66.9617V57.439H67.6934ZM68.4251 57.439V58.1707H67.6934V57.439H68.4251ZM68.4251 58.1707V58.9024H67.6934V58.1707H68.4251ZM69.1568 58.1707V58.9024H68.4251V58.1707H69.1568ZM69.1568 58.9024V59.6341H68.4251V58.9024H69.1568ZM69.1568 59.6341V60.3659H68.4251V59.6341H69.1568ZM69.8885 59.6341V60.3659H69.1568V59.6341H69.8885ZM69.8885 60.3659V61.0976H69.1568V60.3659H69.8885ZM69.8885 61.0976V61.8293H69.1568V61.0976H69.8885ZM69.8885 61.8293V62.561H69.1568V61.8293H69.8885ZM69.8885 62.561V63.2927H69.1568V62.561H69.8885ZM69.1568 62.561V63.2927H68.4251V62.561H69.1568ZM68.4251 62.561V63.2927H67.6934V62.561H68.4251ZM67.6934 62.561V63.2927H66.9617V62.561H67.6934ZM67.6934 61.8293V62.561H66.9617V61.8293H67.6934ZM66.9617 61.8293V62.561H66.23V61.8293H66.9617ZM66.9617 61.0976V61.8293H66.23V61.0976H66.9617ZM66.9617 60.3659V61.0976H66.23V60.3659H66.9617ZM67.6934 60.3659V61.0976H66.9617V60.3659H67.6934ZM68.4251 60.3659V61.0976H67.6934V60.3659H68.4251ZM69.1568 60.3659V61.0976H68.4251V60.3659H69.1568ZM69.1568 61.0976V61.8293H68.4251V61.0976H69.1568ZM69.1568 61.8293V62.561H68.4251V61.8293H69.1568ZM68.4251 61.0976V61.8293H67.6934V61.0976H68.4251ZM67.6934 61.0976V61.8293H66.9617V61.0976H67.6934ZM68.4251 61.8293V62.561H67.6934V61.8293H68.4251ZM68.4251 59.6341V60.3659H67.6934V59.6341H68.4251ZM67.6934 59.6341V60.3659H66.9617V59.6341H67.6934ZM66.9617 59.6341V60.3659H66.23V59.6341H66.9617ZM66.23 59.6341V60.3659H65.4983V59.6341H66.23ZM66.23 60.3659V61.0976H65.4983V60.3659H66.23ZM65.4983 59.6341V60.3659H64.7666V59.6341H65.4983ZM64.7666 59.6341V60.3659H64.0348V59.6341H64.7666ZM64.0348 59.6341V60.3659H63.3031V59.6341H64.0348ZM63.3031 59.6341V60.3659H62.5714V59.6341H63.3031ZM62.5714 59.6341V60.3659H61.8397V59.6341H62.5714ZM62.5714 60.3659V61.0976H61.8397V60.3659H62.5714ZM61.8397 60.3659V61.0976H61.108V60.3659H61.8397ZM61.108 60.3659V61.0976H60.3763V60.3659H61.108ZM60.3763 60.3659V61.0976H59.6446V60.3659H60.3763ZM59.6446 60.3659V61.0976H58.9129V60.3659H59.6446ZM60.3763 59.6341V60.3659H59.6446V59.6341H60.3763ZM61.108 59.6341V60.3659H60.3763V59.6341H61.108ZM61.8397 59.6341V60.3659H61.108V59.6341H61.8397ZM60.3763 58.9024V59.6341H59.6446V58.9024H60.3763ZM61.108 58.9024V59.6341H60.3763V58.9024H61.108ZM61.8397 58.9024V59.6341H61.108V58.9024H61.8397ZM62.5714 58.9024V59.6341H61.8397V58.9024H62.5714ZM63.3031 58.9024V59.6341H62.5714V58.9024H63.3031ZM64.0348 58.9024V59.6341H63.3031V58.9024H64.0348ZM64.7666 58.9024V59.6341H64.0348V58.9024H64.7666ZM65.4983 58.9024V59.6341H64.7666V58.9024H65.4983ZM66.23 58.9024V59.6341H65.4983V58.9024H66.23ZM66.9617 58.9024V59.6341H66.23V58.9024H66.9617ZM67.6934 58.9024V59.6341H66.9617V58.9024H67.6934ZM68.4251 58.9024V59.6341H67.6934V58.9024H68.4251ZM67.6934 58.1707V58.9024H66.9617V58.1707H67.6934ZM66.9617 58.1707V58.9024H66.23V58.1707H66.9617ZM66.23 58.1707V58.9024H65.4983V58.1707H66.23ZM65.4983 58.1707V58.9024H64.7666V58.1707H65.4983ZM64.7666 58.1707V58.9024H64.0348V58.1707H64.7666ZM64.0348 58.1707V58.9024H63.3031V58.1707H64.0348ZM63.3031 58.1707V58.9024H62.5714V58.1707H63.3031ZM62.5714 58.1707V58.9024H61.8397V58.1707H62.5714ZM61.8397 58.1707V58.9024H61.108V58.1707H61.8397ZM61.108 58.1707V58.9024H60.3763V58.1707H61.108ZM62.5714 57.439V58.1707H61.8397V57.439H62.5714ZM63.3031 57.439V58.1707H62.5714V57.439H63.3031ZM64.0348 57.439V58.1707H63.3031V57.439H64.0348ZM69.8885 71.3415V72.0732H69.1568V71.3415H69.8885ZM69.8885 72.0732V72.8049H69.1568V72.0732H69.8885ZM69.8885 72.8049V73.5366H69.1568V72.8049H69.8885ZM69.8885 73.5366V74.2683H69.1568V73.5366H69.8885ZM69.8885 74.2683V75H69.1568V74.2683H69.8885ZM69.1568 74.2683V75H68.4251V74.2683H69.1568ZM68.4251 74.2683V75H67.6934V74.2683H68.4251ZM67.6934 74.2683V75H66.9617V74.2683H67.6934ZM66.9617 74.2683V75H66.23V74.2683H66.9617ZM66.23 74.2683V75H65.4983V74.2683H66.23ZM65.4983 74.2683V75H64.7666V74.2683H65.4983ZM64.7666 74.2683V75H64.0348V74.2683H64.7666ZM64.0348 74.2683V75H63.3031V74.2683H64.0348ZM63.3031 74.2683V75H62.5714V74.2683H63.3031ZM62.5714 74.2683V75H61.8397V74.2683H62.5714ZM61.8397 74.2683V75H61.108V74.2683H61.8397ZM61.108 74.2683V75H60.3763V74.2683H61.108ZM60.3763 74.2683V75H59.6446V74.2683H60.3763ZM59.6446 74.2683V75H58.9129V74.2683H59.6446ZM59.6446 73.5366V74.2683H58.9129V73.5366H59.6446ZM58.9129 73.5366V74.2683H58.1812V73.5366H58.9129ZM58.9129 74.2683V75H58.1812V74.2683H58.9129ZM58.9129 72.8049V73.5366H58.1812V72.8049H58.9129ZM58.9129 72.0732V72.8049H58.1812V72.0732H58.9129ZM59.6446 71.3415V72.0732H58.9129V71.3415H59.6446ZM60.3763 71.3415V72.0732H59.6446V71.3415H60.3763ZM61.108 71.3415V72.0732H60.3763V71.3415H61.108ZM61.8397 71.3415V72.0732H61.108V71.3415H61.8397ZM62.5714 71.3415V72.0732H61.8397V71.3415H62.5714ZM63.3031 71.3415V72.0732H62.5714V71.3415H63.3031ZM64.0348 71.3415V72.0732H63.3031V71.3415H64.0348ZM64.7666 71.3415V72.0732H64.0348V71.3415H64.7666ZM65.4983 71.3415V72.0732H64.7666V71.3415H65.4983ZM66.23 71.3415V72.0732H65.4983V71.3415H66.23ZM66.9617 71.3415V72.0732H66.23V71.3415H66.9617ZM67.6934 71.3415V72.0732H66.9617V71.3415H67.6934ZM68.4251 71.3415V72.0732H67.6934V71.3415H68.4251ZM68.4251 72.0732V72.8049H67.6934V72.0732H68.4251ZM69.1568 72.0732V72.8049H68.4251V72.0732H69.1568ZM69.1568 71.3415V72.0732H68.4251V71.3415H69.1568ZM69.1568 72.8049V73.5366H68.4251V72.8049H69.1568ZM68.4251 72.8049V73.5366H67.6934V72.8049H68.4251ZM68.4251 73.5366V74.2683H67.6934V73.5366H68.4251ZM69.1568 73.5366V74.2683H68.4251V73.5366H69.1568ZM67.6934 73.5366V74.2683H66.9617V73.5366H67.6934ZM66.9617 73.5366V74.2683H66.23V73.5366H66.9617ZM66.23 73.5366V74.2683H65.4983V73.5366H66.23ZM65.4983 73.5366V74.2683H64.7666V73.5366H65.4983ZM64.7666 73.5366V74.2683H64.0348V73.5366H64.7666ZM64.0348 73.5366V74.2683H63.3031V73.5366H64.0348ZM63.3031 73.5366V74.2683H62.5714V73.5366H63.3031ZM62.5714 73.5366V74.2683H61.8397V73.5366H62.5714ZM61.8397 73.5366V74.2683H61.108V73.5366H61.8397ZM61.108 73.5366V74.2683H60.3763V73.5366H61.108ZM60.3763 73.5366V74.2683H59.6446V73.5366H60.3763ZM60.3763 72.8049V73.5366H59.6446V72.8049H60.3763ZM59.6446 72.8049V73.5366H58.9129V72.8049H59.6446ZM59.6446 72.0732V72.8049H58.9129V72.0732H59.6446ZM60.3763 72.0732V72.8049H59.6446V72.0732H60.3763ZM61.108 72.0732V72.8049H60.3763V72.0732H61.108ZM61.8397 72.0732V72.8049H61.108V72.0732H61.8397ZM62.5714 72.0732V72.8049H61.8397V72.0732H62.5714ZM63.3031 72.0732V72.8049H62.5714V72.0732H63.3031ZM67.6934 72.0732V72.8049H66.9617V72.0732H67.6934ZM66.9617 72.0732V72.8049H66.23V72.0732H66.9617ZM66.23 72.0732V72.8049H65.4983V72.0732H66.23ZM65.4983 72.0732V72.8049H64.7666V72.0732H65.4983ZM64.7666 72.0732V72.8049H64.0348V72.0732H64.7666ZM64.0348 72.0732V72.8049H63.3031V72.0732H64.0348ZM61.8397 72.8049V73.5366H61.108V72.8049H61.8397ZM61.108 72.8049V73.5366H60.3763V72.8049H61.108ZM62.5714 72.8049V73.5366H61.8397V72.8049H62.5714ZM63.3031 72.8049V73.5366H62.5714V72.8049H63.3031ZM64.0348 72.8049V73.5366H63.3031V72.8049H64.0348ZM64.7666 72.8049V73.5366H64.0348V72.8049H64.7666ZM65.4983 72.8049V73.5366H64.7666V72.8049H65.4983ZM66.23 72.8049V73.5366H65.4983V72.8049H66.23ZM66.9617 72.8049V73.5366H66.23V72.8049H66.9617ZM67.6934 72.8049V73.5366H66.9617V72.8049H67.6934ZM58.9129 69.878V70.6098H58.1812V69.878H58.9129ZM58.9129 70.6098V71.3415H58.1812V70.6098H58.9129ZM58.9129 71.3415V72.0732H58.1812V71.3415H58.9129ZM59.6446 69.878V70.6098H58.9129V69.878H59.6446ZM59.6446 69.1463V69.878H58.9129V69.1463H59.6446ZM60.3763 69.1463V69.878H59.6446V69.1463H60.3763ZM60.3763 68.4146V69.1463H59.6446V68.4146H60.3763ZM61.108 68.4146V69.1463H60.3763V68.4146H61.108ZM61.8397 67.6829V68.4146H61.108V67.6829H61.8397ZM61.108 67.6829V68.4146H60.3763V67.6829H61.108ZM61.8397 66.9512V67.6829H61.108V66.9512H61.8397ZM62.5714 66.9512V67.6829H61.8397V66.9512H62.5714ZM63.3031 66.9512V67.6829H62.5714V66.9512H63.3031ZM63.3031 66.2195V66.9512H62.5714V66.2195H63.3031ZM62.5714 66.2195V66.9512H61.8397V66.2195H62.5714ZM64.0348 66.2195V66.9512H63.3031V66.2195H64.0348ZM64.0348 65.4878V66.2195H63.3031V65.4878H64.0348ZM63.3031 65.4878V66.2195H62.5714V65.4878H63.3031ZM64.0348 64.7561V65.4878H63.3031V64.7561H64.0348ZM64.7666 64.7561V65.4878H64.0348V64.7561H64.7666ZM64.7666 64.0244V64.7561H64.0348V64.0244H64.7666ZM65.4983 64.0244V64.7561H64.7666V64.0244H65.4983ZM66.23 64.0244V64.7561H65.4983V64.0244H66.23ZM66.23 63.2927V64.0244H65.4983V63.2927H66.23ZM65.4983 63.2927V64.0244H64.7666V63.2927H65.4983ZM66.23 62.561V63.2927H65.4983V62.561H66.23ZM66.9617 62.561V63.2927H66.23V62.561H66.9617ZM69.1568 63.2927V64.0244H68.4251V63.2927H69.1568ZM68.4251 63.2927V64.0244H67.6934V63.2927H68.4251ZM67.6934 63.2927V64.0244H66.9617V63.2927H67.6934ZM67.6934 64.0244V64.7561H66.9617V64.0244H67.6934ZM68.4251 64.0244V64.7561H67.6934V64.0244H68.4251ZM67.6934 64.7561V65.4878H66.9617V64.7561H67.6934ZM66.9617 64.7561V65.4878H66.23V64.7561H66.9617ZM66.9617 65.4878V66.2195H66.23V65.4878H66.9617ZM66.23 65.4878V66.2195H65.4983V65.4878H66.23ZM66.23 66.2195V66.9512H65.4983V66.2195H66.23ZM65.4983 66.2195V66.9512H64.7666V66.2195H65.4983ZM65.4983 66.9512V67.6829H64.7666V66.9512H65.4983ZM64.7666 66.9512V67.6829H64.0348V66.9512H64.7666ZM64.0348 66.9512V67.6829H63.3031V66.9512H64.0348ZM64.0348 67.6829V68.4146H63.3031V67.6829H64.0348ZM64.7666 67.6829V68.4146H64.0348V67.6829H64.7666ZM64.0348 68.4146V69.1463H63.3031V68.4146H64.0348ZM63.3031 68.4146V69.1463H62.5714V68.4146H63.3031ZM63.3031 69.1463V69.878H62.5714V69.1463H63.3031ZM62.5714 69.1463V69.878H61.8397V69.1463H62.5714ZM61.8397 69.1463V69.878H61.108V69.1463H61.8397ZM61.8397 69.878V70.6098H61.108V69.878H61.8397ZM61.8397 70.6098V71.3415H61.108V70.6098H61.8397ZM62.5714 69.878V70.6098H61.8397V69.878H62.5714ZM61.108 70.6098V71.3415H60.3763V70.6098H61.108ZM60.3763 70.6098V71.3415H59.6446V70.6098H60.3763ZM59.6446 70.6098V71.3415H58.9129V70.6098H59.6446ZM60.3763 69.878V70.6098H59.6446V69.878H60.3763ZM61.108 69.878V70.6098H60.3763V69.878H61.108ZM61.108 69.1463V69.878H60.3763V69.1463H61.108ZM61.8397 68.4146V69.1463H61.108V68.4146H61.8397ZM62.5714 68.4146V69.1463H61.8397V68.4146H62.5714ZM62.5714 67.6829V68.4146H61.8397V67.6829H62.5714ZM63.3031 67.6829V68.4146H62.5714V67.6829H63.3031ZM64.7666 65.4878V66.2195H64.0348V65.4878H64.7666ZM65.4983 65.4878V66.2195H64.7666V65.4878H65.4983ZM65.4983 64.7561V65.4878H64.7666V64.7561H65.4983ZM66.23 64.7561V65.4878H65.4983V64.7561H66.23ZM66.9617 64.0244V64.7561H66.23V64.0244H66.9617ZM64.7666 66.2195V66.9512H64.0348V66.2195H64.7666ZM66.9617 63.2927V64.0244H66.23V63.2927H66.9617ZM80.8784 57.439V58.1707H80.1467V57.439H80.8784ZM80.8784 58.1707V58.9024H80.1467V58.1707H80.8784ZM80.8784 58.9024V59.6341H80.1467V58.9024H80.8784ZM80.8784 59.6341V60.3659H80.1467V59.6341H80.8784ZM80.8784 60.3659V61.0976H80.1467V60.3659H80.8784ZM80.8784 61.0976V61.8293H80.1467V61.0976H80.8784ZM80.1467 61.0976V61.8293H79.415V61.0976H80.1467ZM80.1467 60.3659V61.0976H79.415V60.3659H80.1467ZM80.1467 59.6341V60.3659H79.415V59.6341H80.1467ZM80.1467 58.9024V59.6341H79.415V58.9024H80.1467ZM80.1467 58.1707V58.9024H79.415V58.1707H80.1467ZM80.1467 57.439V58.1707H79.415V57.439H80.1467ZM79.415 58.9024V59.6341H78.6833V58.9024H79.415ZM79.415 59.6341V60.3659H78.6833V59.6341H79.415ZM79.415 58.1707V58.9024H78.6833V58.1707H79.415ZM78.6833 58.9024V59.6341H77.9516V58.9024H78.6833ZM78.6833 59.6341V60.3659H77.9516V59.6341H78.6833ZM77.9516 59.6341V60.3659H77.2199V59.6341H77.9516ZM77.9516 60.3659V61.0976H77.2199V60.3659H77.9516ZM77.2199 60.3659V61.0976H76.4882V60.3659H77.2199ZM77.2199 61.0976V61.8293H76.4882V61.0976H77.2199ZM77.2199 61.8293V62.561H76.4882V61.8293H77.2199ZM76.4882 61.8293V62.561H75.7565V61.8293H76.4882ZM76.4882 62.561V63.2927H75.7565V62.561H76.4882ZM75.7565 62.561V63.2927H75.0247V62.561H75.7565ZM75.7565 63.2927V64.0244H75.0247V63.2927H75.7565ZM75.0247 63.2927V64.0244H74.293V63.2927H75.0247ZM75.0247 64.0244V64.7561H74.293V64.0244H75.0247ZM74.293 64.0244V64.7561H73.5613V64.0244H74.293ZM74.293 64.7561V65.4878H73.5613V64.7561H74.293ZM73.5613 64.7561V65.4878H72.8296V64.7561H73.5613ZM73.5613 64.0244V64.7561H72.8296V64.0244H73.5613ZM74.293 63.2927V64.0244H73.5613V63.2927H74.293ZM75.0247 62.561V63.2927H74.293V62.561H75.0247ZM75.7565 61.8293V62.561H75.0247V61.8293H75.7565ZM76.4882 61.0976V61.8293H75.7565V61.0976H76.4882ZM79.415 61.0976V61.8293H78.6833V61.0976H79.415ZM79.415 61.8293V62.561H78.6833V61.8293H79.415ZM78.6833 61.8293V62.561H77.9516V61.8293H78.6833ZM78.6833 62.561V63.2927H77.9516V62.561H78.6833ZM77.9516 62.561V63.2927H77.2199V62.561H77.9516ZM77.9516 63.2927V64.0244H77.2199V63.2927H77.9516ZM77.2199 64.0244V64.7561H76.4882V64.0244H77.2199ZM76.4882 64.7561V65.4878H75.7565V64.7561H76.4882ZM76.4882 65.4878V66.2195H75.7565V65.4878H76.4882ZM75.7565 65.4878V66.2195H75.0247V65.4878H75.7565ZM79.415 60.3659V61.0976H78.6833V60.3659H79.415ZM78.6833 60.3659V61.0976H77.9516V60.3659H78.6833ZM77.9516 61.0976V61.8293H77.2199V61.0976H77.9516ZM77.9516 61.8293V62.561H77.2199V61.8293H77.9516ZM78.6833 61.0976V61.8293H77.9516V61.0976H78.6833ZM77.2199 62.561V63.2927H76.4882V62.561H77.2199ZM76.4882 63.2927V64.0244H75.7565V63.2927H76.4882ZM76.4882 64.0244V64.7561H75.7565V64.0244H76.4882ZM75.7565 64.0244V64.7561H75.0247V64.0244H75.7565ZM75.7565 64.7561V65.4878H75.0247V64.7561H75.7565ZM75.0247 64.7561V65.4878H74.293V64.7561H75.0247ZM75.0247 65.4878V66.2195H74.293V65.4878H75.0247ZM77.2199 63.2927V64.0244H76.4882V63.2927H77.2199ZM76.4882 66.2195V66.9512H75.7565V66.2195H76.4882ZM76.4882 66.9512V67.6829H75.7565V66.9512H76.4882ZM76.4882 67.6829V68.4146H75.7565V67.6829H76.4882ZM77.2199 67.6829V68.4146H76.4882V67.6829H77.2199ZM77.9516 67.6829V68.4146H77.2199V67.6829H77.9516ZM78.6833 67.6829V68.4146H77.9516V67.6829H78.6833ZM79.415 67.6829V68.4146H78.6833V67.6829H79.415ZM80.1467 67.6829V68.4146H79.415V67.6829H80.1467ZM80.8784 67.6829V68.4146H80.1467V67.6829H80.8784ZM80.8784 66.9512V67.6829H80.1467V66.9512H80.8784ZM80.8784 66.2195V66.9512H80.1467V66.2195H80.8784ZM80.8784 65.4878V66.2195H80.1467V65.4878H80.8784ZM80.8784 64.7561V65.4878H80.1467V64.7561H80.8784ZM80.8784 64.0244V64.7561H80.1467V64.0244H80.8784ZM80.8784 63.2927V64.0244H80.1467V63.2927H80.8784ZM80.8784 62.561V63.2927H80.1467V62.561H80.8784ZM81.6101 62.561V63.2927H80.8784V62.561H81.6101ZM81.6101 61.8293V62.561H80.8784V61.8293H81.6101ZM80.8784 61.8293V62.561H80.1467V61.8293H80.8784ZM81.6101 56.7073V57.439H80.8784V56.7073H81.6101ZM82.3418 56.7073V57.439H81.6101V56.7073H82.3418ZM80.8784 56.7073V57.439H80.1467V56.7073H80.8784ZM83.0735 56.7073V57.439H82.3418V56.7073H83.0735ZM83.8052 56.7073V57.439H83.0735V56.7073H83.8052ZM83.8052 57.439V58.1707H83.0735V57.439H83.8052ZM83.8052 58.1707V58.9024H83.0735V58.1707H83.8052ZM83.8052 58.9024V59.6341H83.0735V58.9024H83.8052ZM83.8052 59.6341V60.3659H83.0735V59.6341H83.8052ZM83.8052 60.3659V61.0976H83.0735V60.3659H83.8052ZM83.8052 61.0976V61.8293H83.0735V61.0976H83.8052ZM83.8052 61.8293V62.561H83.0735V61.8293H83.8052ZM83.8052 62.561V63.2927H83.0735V62.561H83.8052ZM83.8052 63.2927V64.0244H83.0735V63.2927H83.8052ZM83.8052 64.0244V64.7561H83.0735V64.0244H83.8052ZM83.8052 64.7561V65.4878H83.0735V64.7561H83.8052ZM83.8052 65.4878V66.2195H83.0735V65.4878H83.8052ZM83.8052 66.2195V66.9512H83.0735V66.2195H83.8052ZM83.8052 66.9512V67.6829H83.0735V66.9512H83.8052ZM83.8052 67.6829V68.4146H83.0735V67.6829H83.8052ZM83.8052 68.4146V69.1463H83.0735V68.4146H83.8052ZM83.8052 69.1463V69.878H83.0735V69.1463H83.8052ZM83.8052 69.878V70.6098H83.0735V69.878H83.8052ZM83.0735 69.878V70.6098H82.3418V69.878H83.0735ZM83.0735 70.6098V71.3415H82.3418V70.6098H83.0735ZM82.3418 70.6098V71.3415H81.6101V70.6098H82.3418ZM81.6101 71.3415V72.0732H80.8784V71.3415H81.6101ZM80.8784 71.3415V72.0732H80.1467V71.3415H80.8784ZM80.8784 70.6098V71.3415H80.1467V70.6098H80.8784ZM80.1467 70.6098V71.3415H79.415V70.6098H80.1467ZM79.415 70.6098V71.3415H78.6833V70.6098H79.415ZM78.6833 70.6098V71.3415H77.9516V70.6098H78.6833ZM77.9516 70.6098V71.3415H77.2199V70.6098H77.9516ZM77.2199 70.6098V71.3415H76.4882V70.6098H77.2199ZM76.4882 70.6098V71.3415H75.7565V70.6098H76.4882ZM75.7565 70.6098V71.3415H75.0247V70.6098H75.7565ZM75.0247 70.6098V71.3415H74.293V70.6098H75.0247ZM74.293 70.6098V71.3415H73.5613V70.6098H74.293ZM73.5613 70.6098V71.3415H72.8296V70.6098H73.5613ZM73.5613 69.878V70.6098H72.8296V69.878H73.5613ZM73.5613 69.1463V69.878H72.8296V69.1463H73.5613ZM73.5613 68.4146V69.1463H72.8296V68.4146H73.5613ZM73.5613 67.6829V68.4146H72.8296V67.6829H73.5613ZM73.5613 66.9512V67.6829H72.8296V66.9512H73.5613ZM74.293 66.9512V67.6829H73.5613V66.9512H74.293ZM74.293 66.2195V66.9512H73.5613V66.2195H74.293ZM74.293 65.4878V66.2195H73.5613V65.4878H74.293ZM73.5613 65.4878V66.2195H72.8296V65.4878H73.5613ZM73.5613 66.2195V66.9512H72.8296V66.2195H73.5613ZM75.0247 66.2195V66.9512H74.293V66.2195H75.0247ZM75.7565 66.2195V66.9512H75.0247V66.2195H75.7565ZM75.7565 66.9512V67.6829H75.0247V66.9512H75.7565ZM75.7565 67.6829V68.4146H75.0247V67.6829H75.7565ZM75.7565 68.4146V69.1463H75.0247V68.4146H75.7565ZM75.0247 68.4146V69.1463H74.293V68.4146H75.0247ZM75.0247 67.6829V68.4146H74.293V67.6829H75.0247ZM75.0247 66.9512V67.6829H74.293V66.9512H75.0247ZM74.293 67.6829V68.4146H73.5613V67.6829H74.293ZM74.293 68.4146V69.1463H73.5613V68.4146H74.293ZM74.293 69.1463V69.878H73.5613V69.1463H74.293ZM74.293 69.878V70.6098H73.5613V69.878H74.293ZM75.0247 69.878V70.6098H74.293V69.878H75.0247ZM75.7565 69.878V70.6098H75.0247V69.878H75.7565ZM76.4882 69.878V70.6098H75.7565V69.878H76.4882ZM77.2199 69.878V70.6098H76.4882V69.878H77.2199ZM77.9516 69.878V70.6098H77.2199V69.878H77.9516ZM78.6833 69.878V70.6098H77.9516V69.878H78.6833ZM79.415 69.878V70.6098H78.6833V69.878H79.415ZM80.1467 69.878V70.6098H79.415V69.878H80.1467ZM80.8784 69.878V70.6098H80.1467V69.878H80.8784ZM81.6101 69.878V70.6098H80.8784V69.878H81.6101ZM82.3418 69.878V70.6098H81.6101V69.878H82.3418ZM81.6101 70.6098V71.3415H80.8784V70.6098H81.6101ZM83.0735 69.1463V69.878H82.3418V69.1463H83.0735ZM82.3418 69.1463V69.878H81.6101V69.1463H82.3418ZM81.6101 69.1463V69.878H80.8784V69.1463H81.6101ZM81.6101 68.4146V69.1463H80.8784V68.4146H81.6101ZM80.8784 68.4146V69.1463H80.1467V68.4146H80.8784ZM80.1467 68.4146V69.1463H79.415V68.4146H80.1467ZM79.415 68.4146V69.1463H78.6833V68.4146H79.415ZM78.6833 68.4146V69.1463H77.9516V68.4146H78.6833ZM77.9516 68.4146V69.1463H77.2199V68.4146H77.9516ZM77.2199 68.4146V69.1463H76.4882V68.4146H77.2199ZM76.4882 68.4146V69.1463H75.7565V68.4146H76.4882ZM75.0247 69.1463V69.878H74.293V69.1463H75.0247ZM75.7565 69.1463V69.878H75.0247V69.1463H75.7565ZM76.4882 69.1463V69.878H75.7565V69.1463H76.4882ZM77.2199 69.1463V69.878H76.4882V69.1463H77.2199ZM77.9516 69.1463V69.878H77.2199V69.1463H77.9516ZM78.6833 69.1463V69.878H77.9516V69.1463H78.6833ZM79.415 69.1463V69.878H78.6833V69.1463H79.415ZM80.1467 69.1463V69.878H79.415V69.1463H80.1467ZM80.8784 69.1463V69.878H80.1467V69.1463H80.8784ZM81.6101 67.6829V68.4146H80.8784V67.6829H81.6101ZM81.6101 66.9512V67.6829H80.8784V66.9512H81.6101ZM81.6101 66.2195V66.9512H80.8784V66.2195H81.6101ZM81.6101 65.4878V66.2195H80.8784V65.4878H81.6101ZM81.6101 64.7561V65.4878H80.8784V64.7561H81.6101ZM81.6101 64.0244V64.7561H80.8784V64.0244H81.6101ZM82.3418 63.2927V64.0244H81.6101V63.2927H82.3418ZM82.3418 62.561V63.2927H81.6101V62.561H82.3418ZM82.3418 61.8293V62.561H81.6101V61.8293H82.3418ZM82.3418 61.0976V61.8293H81.6101V61.0976H82.3418ZM82.3418 60.3659V61.0976H81.6101V60.3659H82.3418ZM81.6101 60.3659V61.0976H80.8784V60.3659H81.6101ZM81.6101 59.6341V60.3659H80.8784V59.6341H81.6101ZM81.6101 58.9024V59.6341H80.8784V58.9024H81.6101ZM81.6101 58.1707V58.9024H80.8784V58.1707H81.6101ZM81.6101 57.439V58.1707H80.8784V57.439H81.6101ZM82.3418 57.439V58.1707H81.6101V57.439H82.3418ZM83.0735 57.439V58.1707H82.3418V57.439H83.0735ZM83.0735 58.1707V58.9024H82.3418V58.1707H83.0735ZM83.0735 58.9024V59.6341H82.3418V58.9024H83.0735ZM83.0735 59.6341V60.3659H82.3418V59.6341H83.0735ZM83.0735 60.3659V61.0976H82.3418V60.3659H83.0735ZM83.0735 61.0976V61.8293H82.3418V61.0976H83.0735ZM83.0735 61.8293V62.561H82.3418V61.8293H83.0735ZM83.0735 62.561V63.2927H82.3418V62.561H83.0735ZM83.0735 63.2927V64.0244H82.3418V63.2927H83.0735ZM83.0735 64.0244V64.7561H82.3418V64.0244H83.0735ZM83.0735 64.7561V65.4878H82.3418V64.7561H83.0735ZM83.0735 65.4878V66.2195H82.3418V65.4878H83.0735ZM83.0735 66.2195V66.9512H82.3418V66.2195H83.0735ZM83.0735 66.9512V67.6829H82.3418V66.9512H83.0735ZM83.0735 67.6829V68.4146H82.3418V67.6829H83.0735ZM83.0735 68.4146V69.1463H82.3418V68.4146H83.0735ZM82.3418 68.4146V69.1463H81.6101V68.4146H82.3418ZM82.3418 67.6829V68.4146H81.6101V67.6829H82.3418ZM82.3418 66.9512V67.6829H81.6101V66.9512H82.3418ZM82.3418 65.4878V66.2195H81.6101V65.4878H82.3418ZM82.3418 66.2195V66.9512H81.6101V66.2195H82.3418ZM82.3418 64.0244V64.7561H81.6101V64.0244H82.3418ZM82.3418 64.7561V65.4878H81.6101V64.7561H82.3418ZM81.6101 61.0976V61.8293H80.8784V61.0976H81.6101ZM81.6101 63.2927V64.0244H80.8784V63.2927H81.6101ZM82.3418 59.6341V60.3659H81.6101V59.6341H82.3418ZM82.3418 58.9024V59.6341H81.6101V58.9024H82.3418ZM82.3418 58.1707V58.9024H81.6101V58.1707H82.3418ZM80.8784 72.0732V72.8049H80.1467V72.0732H80.8784ZM80.8784 72.8049V73.5366H80.1467V72.8049H80.8784ZM80.8784 73.5366V74.2683H80.1467V73.5366H80.8784ZM80.8784 74.2683V75H80.1467V74.2683H80.8784ZM81.6101 74.2683V75H80.8784V74.2683H81.6101ZM82.3418 74.2683V75H81.6101V74.2683H82.3418ZM83.0735 74.2683V75H82.3418V74.2683H83.0735ZM83.8052 73.5366V74.2683H83.0735V73.5366H83.8052ZM83.8052 72.8049V73.5366H83.0735V72.8049H83.8052ZM83.8052 74.2683V75H83.0735V74.2683H83.8052ZM83.8052 72.0732V72.8049H83.0735V72.0732H83.8052ZM83.8052 71.3415V72.0732H83.0735V71.3415H83.8052ZM83.8052 70.6098V71.3415H83.0735V70.6098H83.8052ZM83.0735 71.3415V72.0732H82.3418V71.3415H83.0735ZM83.0735 72.0732V72.8049H82.3418V72.0732H83.0735ZM82.3418 72.0732V72.8049H81.6101V72.0732H82.3418ZM82.3418 72.8049V73.5366H81.6101V72.8049H82.3418ZM82.3418 73.5366V74.2683H81.6101V73.5366H82.3418ZM83.0735 73.5366V74.2683H82.3418V73.5366H83.0735ZM83.0735 72.8049V73.5366H82.3418V72.8049H83.0735ZM81.6101 73.5366V74.2683H80.8784V73.5366H81.6101ZM82.3418 71.3415V72.0732H81.6101V71.3415H82.3418ZM81.6101 72.8049V73.5366H80.8784V72.8049H81.6101ZM81.6101 72.0732V72.8049H80.8784V72.0732H81.6101Z" fill="#2355AB"/>
<circle cx="42" cy="67" r="3" fill="#2355AB"/>
<circle cx="71" cy="37" r="3" fill="#2355AB"/>
<circle cx="71" cy="96" r="3" fill="#2355AB"/>
<circle cx="100" cy="67" r="3" fill="#2355AB"/>
<defs>
<filter id="filter0_d_198_3" x="0" y="0" width="142" height="142" filterUnits="userSpaceOnUse" color-interpolation-filters="sRGB">
<feFlood flood-opacity="0" result="BackgroundImageFix"/>
<feColorMatrix in="SourceAlpha" type="matrix" values="0 0 0 0 0 0 0 0 0 0 0 0 0 0 0 0 0 0 127 0" result="hardAlpha"/>
<feOffset dy="4"/>
<feGaussianBlur stdDeviation="2"/>
<feComposite in2="hardAlpha" operator="out"/>
<feColorMatrix type="matrix" values="0 0 0 0 0 0 0 0 0 0 0 0 0 0 0 0 0 0 0.25 0"/>
<feBlend mode="normal" in2="BackgroundImageFix" result="effect1_dropShadow_198_3"/>
<feBlend mode="normal" in="SourceGraphic" in2="effect1_dropShadow_198_3" result="shape"/>
</filter>
<linearGradient id="paint0_linear_198_3" x1="71" y1="7.62939e-06" x2="71" y2="134" gradientUnits="userSpaceOnUse">
<stop stop-color="#A5E1FF"/>
<stop offset="1" stop-color="white"/>
</linearGradient>
</defs>
</svg>
