<svg width="138" height="138" viewBox="0 0 138 138" fill="none" xmlns="http://www.w3.org/2000/svg">
<path d="M65.6584 91.0994L65.8292 89.6092L65.8282 89.6091L65.6584 91.0994ZM62.2828 90.3579L61.8027 91.779L61.8094 91.7812L62.2828 90.3579ZM59.5373 89.0877L60.3401 87.8206L60.3401 87.8206L59.5373 89.0877ZM59.1993 88.0032L60.608 88.5186L60.608 88.5184L59.1993 88.0032ZM60.7751 83.6947L59.3666 83.1789L59.3664 83.1794L60.7751 83.6947ZM62.1993 83.1928L61.4575 84.4966L61.4586 84.4972L62.1993 83.1928ZM64.4943 84.23L63.9975 85.6453L64.01 85.6497L64.0226 85.6539L64.4943 84.23ZM70.068 84.5151L70.7581 85.847L70.7878 85.8316L70.8168 85.8149L70.068 84.5151ZM69.8614 82.3063L69.1988 83.6521L69.2086 83.6569L69.2184 83.6616L69.8614 82.3063ZM67.2076 81.4514L66.839 82.9054L66.8449 82.9069L67.2076 81.4514ZM63.2266 80.1688L62.6139 81.538L62.6268 81.5438L62.6399 81.5493L63.2266 80.1688ZM60.4545 77.8887L59.2464 78.7778L59.2511 78.7843L59.256 78.7907L60.4545 77.8887ZM61.1325 68.1982L59.9846 67.2325L59.9768 67.2419L61.1325 68.1982ZM65.7567 65.5062L66.1036 66.9655L66.1036 66.9655L65.7567 65.5062ZM71.5155 65.389L71.2786 66.8701L71.279 66.8702L71.5155 65.389ZM76.0568 66.9519L76.817 65.6588L76.817 65.6588L76.0568 66.9519ZM76.4318 68.046L75.0133 67.5581L75.0132 67.5585L76.4318 68.046ZM74.957 72.3368L73.5385 71.8493L73.5382 71.8501L74.957 72.3368ZM73.5867 72.8746L74.2774 71.543L74.277 71.5428L73.5867 72.8746ZM66.9419 74.2906L66.2784 75.6359L66.3039 75.6485L66.3299 75.6601L66.9419 74.2906ZM69.5665 75.0743L69.2249 76.5349L69.235 76.5372L69.5665 75.0743ZM73.5476 76.321L72.9442 77.6943L72.957 77.6999L72.97 77.7053L73.5476 76.321ZM76.3492 78.5657L75.1508 79.4677L75.1561 79.4748L75.1615 79.4818L76.3492 78.5657ZM75.759 88.0778L74.5886 87.1397L74.5882 87.1402L75.759 88.0778ZM71.4216 90.8167L71.0136 89.3732L71.0134 89.3733L71.4216 90.8167ZM78.6957 45.8592L77.3176 45.2668L77.316 45.2706L78.6957 45.8592ZM75.9906 52.2L74.6109 51.6114C74.408 52.087 74.4644 52.6336 74.7601 53.0577C75.0557 53.4819 75.549 53.7239 76.0655 53.6981L75.9906 52.2ZM82.3522 54.0336L83.3805 52.9416C83.3269 52.8911 83.2697 52.8446 83.2092 52.8025L82.3522 54.0336ZM99.082 77.4048L97.718 78.0289C97.7222 78.0381 97.7265 78.0472 97.7309 78.0563L99.082 77.4048ZM100.882 87.9648L99.3911 87.7999C99.388 87.8288 99.3856 87.8578 99.3841 87.8868L100.882 87.9648ZM84.2178 105V106.5C84.2419 106.5 84.2659 106.499 84.29 106.498L84.2178 105ZM52.5033 105L52.4332 106.498C52.4566 106.499 52.4799 106.5 52.5033 106.5V105ZM35.8158 87.984L37.3137 87.9043C37.3122 87.8759 37.3099 87.8474 37.3067 87.8191L35.8158 87.984ZM37.6161 77.424L38.9672 78.0756C38.9715 78.0665 38.9758 78.0574 38.98 78.0482L37.6161 77.424ZM54.3689 54.0336L53.512 52.8024C53.4517 52.8444 53.3945 52.8907 53.341 52.9411L54.3689 54.0336ZM60.7303 52.2L60.6555 53.6981C61.1725 53.724 61.6664 53.4813 61.9619 53.0563C62.2574 52.6312 62.3129 52.0838 62.1086 51.6081L60.7303 52.2ZM60.3572 51.3312L58.9772 51.9192L58.9789 51.9231L60.3572 51.3312ZM58.0254 45.8592L59.4053 45.2712L59.4044 45.2691L58.0254 45.8592ZM3.5 69C3.5 32.8254 32.8253 3.5 69 3.5L69 0.5C31.1685 0.500003 0.499997 31.1685 0.5 69L3.5 69ZM69 3.5C105.175 3.5 134.5 32.8253 134.5 69L137.5 69C137.5 31.1685 106.831 0.499997 69 0.5L69 3.5ZM134.5 69C134.5 105.175 105.175 134.5 69 134.5L69 137.5C106.832 137.5 137.5 106.831 137.5 69L134.5 69ZM69 134.5C32.8254 134.5 3.5 105.175 3.5 69L0.5 69C0.500003 106.832 31.1685 137.5 69 137.5L69 134.5ZM69.7569 93.4535H67.4596V96.4535H69.7569V93.4535ZM67.4596 93.4535C67.8133 93.4535 68.0292 93.7366 68.0292 93.9966H65.0292C65.0292 95.314 66.0781 96.4535 67.4596 96.4535V93.4535ZM68.0292 93.9966V92.0759H65.0292V93.9966H68.0292ZM68.0292 92.0759C68.0292 90.796 67.0628 89.7505 65.8292 89.6092L65.4877 92.5897C65.2312 92.5603 65.0292 92.3454 65.0292 92.0759H68.0292ZM65.8282 89.6091C64.7663 89.4881 63.7431 89.2628 62.7562 88.9346L61.8094 91.7812C62.9972 92.1763 64.2242 92.4457 65.4886 92.5898L65.8282 89.6091ZM62.7629 88.9368C61.7957 88.61 60.9936 88.2346 60.3401 87.8206L58.7345 90.3548C59.6291 90.9215 60.6572 91.392 61.8027 91.779L62.7629 88.9368ZM60.3401 87.8206C60.6513 88.0178 60.6734 88.3398 60.608 88.5186L57.7906 87.4877C57.4311 88.4703 57.712 89.707 58.7346 90.3549L60.3401 87.8206ZM60.608 88.5184L62.1839 84.2099L59.3664 83.1794L57.7906 87.4879L60.608 88.5184ZM62.1837 84.2104C62.0553 84.5611 61.6806 84.6235 61.4575 84.4966L62.9411 81.8891C61.6636 81.1622 59.9196 81.6686 59.3666 83.1789L62.1837 84.2104ZM61.4586 84.4972C62.2527 84.9481 63.1001 85.3304 63.9975 85.6453L64.9911 82.8147C64.2528 82.5555 63.5697 82.246 62.94 81.8885L61.4586 84.4972ZM64.0226 85.6539C65.372 86.1009 66.7015 86.3357 68.0035 86.3357V83.3357C67.065 83.3357 66.0546 83.1667 64.9659 82.8061L64.0226 85.6539ZM68.0035 86.3357C69.0015 86.3357 70.0039 86.2377 70.7581 85.847L69.3779 83.1833C69.3785 83.183 69.3523 83.1963 69.2874 83.2152C69.2234 83.2339 69.1334 83.2545 69.0122 83.2733C68.7668 83.3114 68.4351 83.3357 68.0035 83.3357V86.3357ZM70.8168 85.8149C71.6619 85.328 72.1873 84.5056 72.1873 83.4818H69.1873C69.1873 83.4796 69.1876 83.4582 69.1967 83.4232C69.206 83.3873 69.2221 83.3469 69.2458 83.3073C69.2964 83.2228 69.3455 83.2002 69.3192 83.2154L70.8168 85.8149ZM72.1873 83.4818C72.1873 82.9414 72.0394 82.4053 71.7081 81.9337C71.3862 81.4756 70.9511 81.1631 70.5043 80.9511L69.2184 83.6616C69.3222 83.7108 69.3001 83.7248 69.2535 83.6585C69.2304 83.6256 69.2113 83.5867 69.1994 83.547C69.1877 83.5084 69.1873 83.484 69.1873 83.4818H72.1873ZM70.5239 80.9606C69.8398 80.6238 68.8215 80.3078 67.5704 79.9959L66.8449 82.9069C68.07 83.2122 68.8218 83.4665 69.1988 83.6521L70.5239 80.9606ZM67.5763 79.9974C66.0299 79.6054 64.7816 79.1998 63.8132 78.7883L62.6399 81.5493C63.7947 82.0401 65.2002 82.4899 66.839 82.9054L67.5763 79.9974ZM63.8393 78.7997C63.037 78.4406 62.306 77.8545 61.653 76.9868L59.256 78.7907C60.1756 80.0126 61.293 80.9469 62.6139 81.538L63.8393 78.7997ZM61.6626 76.9997C61.1235 76.267 60.7749 75.1765 60.7749 73.5778H57.7749C57.7749 75.5892 58.2126 77.3729 59.2464 78.7778L61.6626 76.9997ZM60.7749 73.5778C60.7749 71.8084 61.2899 70.3608 62.2881 69.1545L59.9768 67.2419C58.4985 69.0284 57.7749 71.167 57.7749 73.5778H60.7749ZM62.2803 69.1638C63.1569 68.1219 64.3965 67.3712 66.1036 66.9655L65.4099 64.0468C63.1836 64.5759 61.341 65.6202 59.9847 67.2325L62.2803 69.1638ZM66.1036 66.9655C67.1937 66.7064 68.0292 65.7295 68.0292 64.5388H65.0292C65.0292 64.282 65.2052 64.0955 65.4098 64.0468L66.1036 66.9655ZM68.0292 64.5388V62.4219H65.0292V64.5388H68.0292ZM68.0292 62.4219C68.0292 62.682 67.8133 62.9651 67.4596 62.9651V59.9651C66.0781 59.9651 65.0292 61.1045 65.0292 62.4219H68.0292ZM67.4596 62.9651H69.7569V59.9651H67.4596V62.9651ZM69.7569 62.9651C69.4032 62.9651 69.1873 62.682 69.1873 62.4219H72.1873C72.1873 61.1045 71.1383 59.9651 69.7569 59.9651V62.9651ZM69.1873 62.4219V64.4178H72.1873V62.4219H69.1873ZM69.1873 64.4178C69.1873 65.6566 70.0942 66.6806 71.2786 66.8701L71.7525 63.9078C71.9979 63.9471 72.1873 64.1569 72.1873 64.4178H69.1873ZM71.279 66.8702C72.8451 67.1202 74.1762 67.5863 75.2966 68.245L76.817 65.6588C75.3285 64.7837 73.6317 64.2078 71.7521 63.9077L71.279 66.8702ZM75.2965 68.245C74.9849 68.0618 74.9496 67.7433 75.0133 67.5581L77.8502 68.5339C78.1983 67.522 77.8691 66.2774 76.817 65.6588L75.2965 68.245ZM75.0132 67.5585L73.5385 71.8493L76.3756 72.8244L77.8503 68.5336L75.0132 67.5585ZM73.5382 71.8501C73.6537 71.5135 74.0243 71.4117 74.2774 71.543L72.8961 74.2061C74.1969 74.8809 75.8701 74.2979 76.3758 72.8236L73.5382 71.8501ZM74.277 71.5428C72.4525 70.5971 70.6309 70.0829 68.8294 70.0829V73.0829C70.049 73.0829 71.3983 73.4298 72.8964 74.2063L74.277 71.5428ZM68.8294 70.0829C67.8379 70.0829 66.8486 70.2189 66.0601 70.6794C65.1475 71.2123 64.6456 72.1001 64.6456 73.1501H67.6456C67.6456 73.1081 67.6527 73.1438 67.616 73.2081C67.579 73.2729 67.5425 73.2878 67.5729 73.27C67.6129 73.2467 67.722 73.196 67.9418 73.1532C68.1591 73.1109 68.4506 73.0829 68.8294 73.0829V70.0829ZM64.6456 73.1501C64.6456 73.6826 64.7929 74.2072 65.1151 74.6684C65.4273 75.1154 65.8479 75.4236 66.2784 75.6359L67.6054 72.9454C67.5053 72.896 67.5277 72.8835 67.5745 72.9504C67.5979 72.9839 67.6181 73.0247 67.6313 73.0681C67.6441 73.1105 67.6456 73.1405 67.6456 73.1501H64.6456ZM66.3299 75.6601C67.0002 75.9597 67.9936 76.2469 69.2249 76.5349L69.9081 73.6137C68.7014 73.3314 67.9456 73.0962 67.5538 72.9212L66.3299 75.6601ZM69.235 76.5372C70.746 76.8796 71.9761 77.2689 72.9442 77.6943L74.151 74.9477C72.9568 74.423 71.5322 73.9817 69.8981 73.6114L69.235 76.5372ZM72.97 77.7053C73.777 78.0421 74.5051 78.6099 75.1508 79.4677L77.5477 77.6636C76.6198 76.4308 75.4805 75.5022 74.1252 74.9367L72.97 77.7053ZM75.1615 79.4818C75.702 80.1826 76.0583 81.2469 76.0583 82.8407H79.0583C79.0583 80.8245 78.6082 79.0384 77.537 77.6496L75.1615 79.4818ZM76.0583 82.8407C76.0583 84.5094 75.5657 85.9207 74.5886 87.1397L76.9295 89.016C78.3514 87.242 79.0583 85.1619 79.0583 82.8407H76.0583ZM74.5882 87.1402C73.7675 88.165 72.6064 88.9231 71.0136 89.3732L71.8295 92.2601C73.9306 91.6664 75.6618 90.5989 76.9299 89.0155L74.5882 87.1402ZM71.0134 89.3733C69.9724 89.6677 69.1873 90.6219 69.1873 91.7759H72.1873C72.1873 92.0248 72.0214 92.2059 71.8297 92.2601L71.0134 89.3733ZM69.1873 91.7759V93.9966H72.1873V91.7759H69.1873ZM69.1873 93.9966C69.1873 93.7365 69.4032 93.4535 69.7569 93.4535V96.4535C71.1383 96.4535 72.1873 95.314 72.1873 93.9966H69.1873ZM58.2632 34.5H78.458V31.5H58.2632V34.5ZM78.458 34.5C78.9137 34.5 79.1723 34.5876 79.3147 34.6662C79.4456 34.7384 79.55 34.8412 79.6405 35.0154C79.8556 35.4297 79.9646 36.2055 79.8134 37.4168C79.517 39.7902 78.3646 42.8311 77.3176 45.2668L80.0738 46.4516C81.121 44.0153 82.4359 40.6266 82.7902 37.7884C82.9644 36.3939 82.9445 34.8684 82.3029 33.6329C81.965 32.9821 81.4592 32.4229 80.7635 32.0392C80.0795 31.662 79.2953 31.5 78.458 31.5V34.5ZM76.0655 53.6981C77.988 53.6021 79.8933 54.1495 81.4952 55.2647L83.2092 52.8025C81.0675 51.3116 78.5079 50.5724 75.9158 50.7019L76.0655 53.6981ZM81.3239 55.1256C88.1839 61.5856 93.7538 69.3655 97.718 78.0289L100.446 76.7807C96.3223 67.7686 90.5256 59.67 83.3805 52.9416L81.3239 55.1256ZM97.7309 78.0563C99.1836 81.0691 99.7612 84.4533 99.3911 87.7999L102.373 88.1297C102.805 84.2264 102.132 80.2761 100.433 76.7533L97.7309 78.0563ZM99.3841 87.8868C98.9411 96.3921 92.3221 103.108 84.1455 103.502L84.29 106.498C94.0746 106.027 101.861 98.0165 102.38 88.0428L99.3841 87.8868ZM84.2178 103.5H52.5033V106.5H84.2178V103.5ZM52.5734 103.502C44.3947 103.119 37.766 96.411 37.3137 87.9043L34.3179 88.0636C34.8483 98.0389 42.646 106.041 52.4332 106.498L52.5734 103.502ZM37.3067 87.8191C36.9366 84.4725 37.5142 81.0884 38.9672 78.0756L36.265 76.7724C34.566 80.2953 33.8932 84.2456 34.3249 88.1489L37.3067 87.8191ZM38.98 78.0482C42.9489 69.3763 48.5265 61.5894 55.3967 55.1261L53.341 52.9411C46.1853 59.673 40.3807 67.7789 36.2521 76.7998L38.98 78.0482ZM55.2257 55.2647C56.8281 54.1495 58.7331 53.6021 60.6555 53.6981L60.8051 50.7019C58.213 50.5724 55.6538 51.3117 53.512 52.8024L55.2257 55.2647ZM62.1086 51.6081L61.7355 50.7393L58.9789 51.9231L59.352 52.7919L62.1086 51.6081ZM61.7371 50.7432L59.4053 45.2712L56.6454 46.4472L58.9772 51.9192L61.7371 50.7432ZM59.4044 45.2691C58.3611 42.831 57.2075 39.7901 56.9095 37.4158C56.7574 36.2041 56.8658 35.4286 57.0804 35.0147C57.1706 34.8409 57.2747 34.7383 57.4054 34.6662C57.5478 34.5877 57.8067 34.5 58.2632 34.5V31.5C57.4255 31.5 56.6411 31.6619 55.9568 32.0392C55.2609 32.4229 54.755 32.9824 54.4173 33.6335C53.7762 34.8695 53.7578 36.3953 53.9328 37.7894C54.2889 40.6267 55.6048 44.0154 56.6463 46.4493L59.4044 45.2691ZM77.316 45.2706L74.6109 51.6114L77.3703 52.7886L80.0754 46.4478L77.316 45.2706Z" fill="url(#paint0_linear_200_11)"/>
<defs>
<linearGradient id="paint0_linear_200_11" x1="68.3489" y1="33" x2="68.3489" y2="105" gradientUnits="userSpaceOnUse">
<stop stop-color="#337FFF"/>
<stop offset="1" stop-color="#1F4C99"/>
</linearGradient>
</defs>
</svg>
