<svg width="147" height="142" viewBox="0 0 147 142" fill="none" xmlns="http://www.w3.org/2000/svg">
<g filter="url(#filter0_d_224_11)">
<ellipse cx="73.5067" cy="67" rx="69.4938" ry="67" transform="rotate(180 73.5067 67)" fill="url(#paint0_linear_224_11)"/>
</g>
<path d="M42.2177 50.1005L40.8235 48.6665L40.8235 48.6665L42.2177 50.1005ZM105.782 50.1005L104.388 51.5344L104.388 51.5345L105.782 50.1005ZM105.782 97.8994L104.388 96.4654L104.388 96.4655L105.782 97.8994ZM42.2177 97.8994L43.6118 96.4654L43.6118 96.4654L42.2177 97.8994ZM86.2911 34.0503L84.897 35.4843L84.897 35.4843L86.2911 34.0503ZM61.7088 34.0503L63.103 35.4843L63.103 35.4842L61.7088 34.0503ZM68.8 79.8335C68.8 78.7289 67.9046 77.8335 66.8 77.8335C65.6954 77.8335 64.8 78.7289 64.8 79.8335H68.8ZM72 88C72 89.1046 72.8954 90 74 90C75.1046 90 76 89.1046 76 88H72ZM76 60C76 58.8954 75.1046 58 74 58C72.8954 58 72 58.8954 72 60H76ZM79.2 68.1665C79.2 69.2711 80.0954 70.1665 81.2 70.1665C82.3046 70.1665 83.2 69.2711 83.2 68.1665H79.2ZM40 74C40 67.3423 40.0045 62.5558 40.5084 58.9122C41.0034 55.332 41.9464 53.1537 43.6118 51.5345L40.8235 48.6665C38.2713 51.1478 37.1054 54.3196 36.5461 58.3643C35.9955 62.3455 36 67.4585 36 74H40ZM43.6118 51.5345C45.2851 49.9076 47.5489 48.9806 51.2585 48.4957C55.02 48.004 59.9568 48 66.8 48V44C60.0668 44 54.8212 43.996 50.7401 44.5294C46.6071 45.0697 43.3679 46.1928 40.8235 48.6665L43.6118 51.5345ZM66.8 48H81.2V44H66.8V48ZM81.2 48C88.0432 48 92.98 48.004 96.7415 48.4957C100.451 48.9806 102.715 49.9077 104.388 51.5344L107.176 48.6665C104.632 46.1928 101.393 45.0697 97.2599 44.5294C93.1788 43.996 87.9332 44 81.2 44V48ZM104.388 51.5345C106.054 53.1537 106.997 55.3321 107.492 58.9122C107.996 62.5558 108 67.3423 108 74H112C112 67.4585 112.004 62.3455 111.454 58.3643C110.895 54.3196 109.729 51.1478 107.176 48.6665L104.388 51.5345ZM108 74C108 80.6577 107.996 85.4442 107.492 89.0878C106.997 92.668 106.054 94.8463 104.388 96.4654L107.176 99.3335C109.729 96.8522 110.895 93.6804 111.454 89.6358C112.004 85.6546 112 80.5415 112 74H108ZM104.388 96.4655C102.715 98.0923 100.451 99.0194 96.7415 99.5043C92.98 99.996 88.0432 100 81.2 100V104C87.9332 104 93.1788 104.004 97.2599 103.471C101.393 102.93 104.632 101.807 107.176 99.3333L104.388 96.4655ZM81.2 100H66.8V104H81.2V100ZM66.8 100C59.9568 100 55.02 99.996 51.2585 99.5043C47.5489 99.0194 45.2852 98.0923 43.6118 96.4654L40.8235 99.3334C43.3678 101.807 46.607 102.93 50.7401 103.471C54.8212 104.004 60.0668 104 66.8 104V100ZM43.6118 96.4654C41.9464 94.8463 41.0034 92.668 40.5084 89.0878C40.0045 85.4442 40 80.6577 40 74H36C36 80.5415 35.9955 85.6546 36.5461 89.6358C37.1054 93.6804 38.2713 96.8522 40.8235 99.3334L43.6118 96.4654ZM90.4 46C90.4 42.7583 90.4045 40.1201 90.1175 38.0451C89.8218 35.9067 89.1831 34.0724 87.6853 32.6163L84.897 35.4843C85.508 36.0783 85.9238 36.9191 86.1552 38.5931C86.3955 40.3305 86.4 42.6421 86.4 46H90.4ZM87.6853 32.6163C86.1953 31.1677 84.3319 30.5571 82.1595 30.2732C80.0391 29.996 77.3391 30 74 30V34C77.4491 34 79.8402 34.004 81.6411 34.2394C83.39 34.468 84.278 34.8825 84.897 35.4843L87.6853 32.6163ZM74 30C70.6609 30 67.9609 29.996 65.8404 30.2732C63.6681 30.5571 61.8046 31.1677 60.3147 32.6163L63.103 35.4842C63.7219 34.8825 64.6099 34.468 66.3589 34.2394C68.1597 34.004 70.5509 34 74 34V30ZM60.3147 32.6163C58.8169 34.0724 58.1782 35.9067 57.8825 38.0451C57.5955 40.1201 57.6 42.7583 57.6 46H61.6C61.6 42.6421 61.6045 40.3305 61.8448 38.5931C62.0762 36.9191 62.492 36.0783 63.103 35.4843L60.3147 32.6163ZM74 87.6666C78.6672 87.6666 83.2 84.5322 83.2 79.8335H79.2C79.2 81.5775 77.2859 83.6666 74 83.6666V87.6666ZM83.2 79.8335C83.2 75.1345 78.6673 72 74 72V76C77.2858 76 79.2 78.089 79.2 79.8335H83.2ZM74 72C70.7142 72 68.8 69.911 68.8 68.1665H64.8C64.8 72.8656 69.3327 76 74 76V72ZM68.8 68.1665C68.8 66.4225 70.7141 64.3335 74 64.3335V60.3335C69.3328 60.3335 64.8 63.4678 64.8 68.1665H68.8ZM74 83.6666C70.7141 83.6666 68.8 81.5775 68.8 79.8335H64.8C64.8 84.5322 69.3328 87.6666 74 87.6666V83.6666ZM72 85.6666V88H76V85.6666H72ZM72 60V62.3335H76V60H72ZM74 64.3335C77.2859 64.3335 79.2 66.4225 79.2 68.1665H83.2C83.2 63.4678 78.6672 60.3335 74 60.3335V64.3335Z" fill="#2355AB"/>
<defs>
<filter id="filter0_d_224_11" x="0.0126953" y="0" width="146.988" height="142" filterUnits="userSpaceOnUse" color-interpolation-filters="sRGB">
<feFlood flood-opacity="0" result="BackgroundImageFix"/>
<feColorMatrix in="SourceAlpha" type="matrix" values="0 0 0 0 0 0 0 0 0 0 0 0 0 0 0 0 0 0 127 0" result="hardAlpha"/>
<feOffset dy="4"/>
<feGaussianBlur stdDeviation="2"/>
<feComposite in2="hardAlpha" operator="out"/>
<feColorMatrix type="matrix" values="0 0 0 0 0 0 0 0 0 0 0 0 0 0 0 0 0 0 0.25 0"/>
<feBlend mode="normal" in2="BackgroundImageFix" result="effect1_dropShadow_224_11"/>
<feBlend mode="normal" in="SourceGraphic" in2="effect1_dropShadow_224_11" result="shape"/>
</filter>
<linearGradient id="paint0_linear_224_11" x1="73.5067" y1="2.28882e-05" x2="73.5067" y2="134" gradientUnits="userSpaceOnUse">
<stop stop-color="#A5E1FF"/>
<stop offset="1" stop-color="white"/>
</linearGradient>
</defs>
</svg>
