<svg width="142" height="142" viewBox="0 0 142 142" fill="none" xmlns="http://www.w3.org/2000/svg">
<g filter="url(#filter0_d_198_2)">
<circle cx="71" cy="67" r="67" transform="rotate(180 71 67)" fill="url(#paint0_linear_198_2)"/>
</g>
<path d="M108 52.3264C108 53.6284 107.548 54.7352 106.645 55.6466L71.6129 90.9931L65.0322 97.6328C64.129 98.5443 63.0323 99 61.7419 99C60.4516 99 59.3548 98.5443 58.4516 97.6328L51.8709 90.9931L34.3548 73.3195C33.4516 72.4085 33 71.302 33 70C33 68.698 33.4516 67.5913 34.3548 66.6798L40.9355 60.0401C41.8387 59.1291 42.9355 58.6736 44.2258 58.6736C45.5161 58.6736 46.6129 59.1291 47.5161 60.0401L61.7419 74.4427L93.4839 42.3672C94.3871 41.4557 95.4839 41 96.7742 41C98.0645 41 99.1613 41.4557 100.064 42.3672L106.645 49.0069C107.548 49.9179 108 51.0244 108 52.3264Z" fill="url(#paint1_linear_198_2)"/>
<defs>
<filter id="filter0_d_198_2" x="0" y="0" width="142" height="142" filterUnits="userSpaceOnUse" color-interpolation-filters="sRGB">
<feFlood flood-opacity="0" result="BackgroundImageFix"/>
<feColorMatrix in="SourceAlpha" type="matrix" values="0 0 0 0 0 0 0 0 0 0 0 0 0 0 0 0 0 0 127 0" result="hardAlpha"/>
<feOffset dy="4"/>
<feGaussianBlur stdDeviation="2"/>
<feComposite in2="hardAlpha" operator="out"/>
<feColorMatrix type="matrix" values="0 0 0 0 0 0 0 0 0 0 0 0 0 0 0 0 0 0 0.25 0"/>
<feBlend mode="normal" in2="BackgroundImageFix" result="effect1_dropShadow_198_2"/>
<feBlend mode="normal" in="SourceGraphic" in2="effect1_dropShadow_198_2" result="shape"/>
</filter>
<linearGradient id="paint0_linear_198_2" x1="71" y1="7.62939e-06" x2="71" y2="134" gradientUnits="userSpaceOnUse">
<stop stop-color="#A5E1FF"/>
<stop offset="1" stop-color="white"/>
</linearGradient>
<linearGradient id="paint1_linear_198_2" x1="70.5" y1="41" x2="70.5" y2="99" gradientUnits="userSpaceOnUse">
<stop stop-color="#3480FF"/>
<stop offset="1" stop-color="#1F4C99"/>
</linearGradient>
</defs>
</svg>
